<svg height="166.459" viewBox="0 0 449.607 166.459" width="449.607" xmlns="http://www.w3.org/2000/svg"><path d="m280.821 7.917c-65.447 0-116.274 20.668-146.84 51.652l32.173 105.39h107.627v-1.873l.509 1.873h88.753c22.983 0 48.896-47.922 73.069-96.781-23.264-51.706-103.999-60.261-155.291-60.261z" fill="#fff"/><path d="m363.044 166.459h-88.753l-.289-.221-.221.221h-107.627l-1.435-1.062-32.173-105.39.367-1.491c33.143-33.597 85.671-52.099 147.908-52.099 34.194 0 63.995 3.634 88.576 10.801 34.698 10.117 57.604 27.055 68.084 50.345l-.023 1.281c-24.438 49.393-50.313 97.616-74.414 97.616zm-87.607-3h87.607c22.278 0 48.515-49.072 71.409-95.307-10.236-22.124-32.401-38.288-65.896-48.054-23.966-6.987-54.304-10.681-87.736-10.681-61.034 0-112.533 17.953-145.144 50.573l31.587 103.47h105.017v-.373l2.948-.394z" fill="#231f20"/><path d="m191.561 164.959h-171.299c-10.362 0-18.762-8.4-18.762-18.762 0-9.534 7.15-17.552 16.621-18.64l138.968-15.965 25.79-29.365 24.002 42.642-15.321 40.089z" fill="#fff"/><path d="m191.561 166.459h-171.299c-11.172 0-20.262-9.09-20.262-20.262 0-10.301 7.717-18.955 17.95-20.13l138.394-15.899 25.408-28.93 2.434.254 24.002 42.642.094 1.271-15.321 40.089-1.401.964zm-8.951-81.652-24.393 27.775-.956.5-138.968 15.965c-8.718 1.002-15.292 8.374-15.292 17.15 0 9.519 7.744 17.262 17.262 17.262h170.265l14.701-38.467z" fill="#231f20"/><path d="m55.973 44.182 20.906-39.247c2.523-4.737 9.382-4.531 11.616.349l27.733 60.583-60.254-21.686z" fill="#fff"/><path d="m115.719 67.279-60.254-21.686-.816-2.117 20.905-39.246c1.438-2.699 4.232-4.319 7.286-4.226 3.056.092 5.746 1.876 7.018 4.656l27.733 60.583zm-57.607-23.922 55.266 19.891-26.247-57.339c-.807-1.762-2.444-2.848-4.381-2.906-1.945-.058-3.637.928-4.547 2.638l-20.091 37.717z" fill="#231f20"/><ellipse cx="111.638" cy="93.208" fill="#fff" rx="85.795" ry="68.432"/><path d="m111.638 163.14c-48.135 0-87.295-31.371-87.295-69.932s39.16-69.932 87.295-69.932 87.295 31.371 87.295 69.932-39.161 69.932-87.295 69.932zm0-136.864c-46.481 0-84.295 30.026-84.295 66.932s37.815 66.932 84.295 66.932 84.295-30.026 84.295-66.932-37.814-66.932-84.295-66.932z" fill="#231f20"/><path d="m236.246 124.87-6.342 16.594c-5.407 14.149-18.984 23.495-34.131 23.495h-146.146c-10.362 0-18.762-8.4-18.762-18.762 0-9.534 7.15-17.552 16.621-18.64l138.968-15.965 25.79-29.365 24.002 42.642z" fill="#fff"/><g fill="#231f20"><path d="m195.773 166.459h-146.146c-11.173 0-20.262-9.09-20.262-20.262 0-10.3 7.717-18.954 17.95-20.13l138.394-15.899 25.408-28.93 2.254 1.98-25.79 29.365-.956.5-138.968 15.965c-8.718 1.002-15.292 8.374-15.292 17.15 0 9.519 7.744 17.262 17.262 17.262h146.146c14.427 0 27.579-9.054 32.729-22.53l6.342-16.594 2.802 1.071-6.342 16.594c-5.591 14.63-19.87 24.459-35.532 24.459z"/><path d="m46.94 83.736c-1.526 0-3.005-.386-4.35-1.163-3.281-1.895-5.472-6.243-5.329-10.572l2.999.099c-.121 3.647 1.836 6.723 3.831 7.875 1.993 1.151 4.504.972 6.889-.492 2.093-1.285 4.149-3.518 6.286-6.827l2.521 1.627c-2.385 3.695-4.753 6.232-7.237 7.757-1.838 1.128-3.759 1.696-5.609 1.696z"/><path d="m101.237 83.73c-4.25 0-8.495-1.447-11.804-4.146-2.737-2.233-4.359-5.002-4.567-7.797l2.992-.223c.198 2.653 2.26 4.707 3.472 5.695 3.847 3.138 9.206 4.256 13.987 2.918s8.781-5.076 10.44-9.755l2.828 1.002c-1.98 5.584-6.753 10.045-12.459 11.641-1.594.446-3.241.663-4.888.663z"/><path d="m52.708 109.986c-.094 0-.188 0-.282-.002-6.425-.102-12.506-3.693-15.872-9.372l2.581-1.529c2.838 4.789 7.948 7.816 13.338 7.902 5.465.082 10.283-2.734 13.598-7.943l2.478-.078c3.522 4.831 9.912 7.904 16.677 8.02 6.961.123 13.05-2.744 17.212-8.061l2.362 1.849c-4.687 5.987-11.842 9.344-19.626 9.211-6.922-.119-13.531-3.006-17.746-7.651-3.752 4.899-9.013 7.655-14.721 7.655z"/><path d="m48.566 166.02c-2.689-2.689-4.473-6.439-4.893-10.289-.478-4.379.884-8.416 3.834-11.366l2.121 2.121c-2.941 2.941-3.24 6.474-2.973 8.92.343 3.136 1.85 6.311 4.032 8.493z"/><path d="m21.372 166.02c-2.689-2.689-4.473-6.439-4.893-10.289-.478-4.379.884-8.416 3.834-11.366l2.121 2.121c-2.941 2.941-3.24 6.474-2.973 8.92.343 3.136 1.85 6.311 4.032 8.493z"/><path d="m64.27 166.02c-2.689-2.689-4.473-6.439-4.893-10.289-.478-4.379.884-8.416 3.834-11.366l2.121 2.121c-2.941 2.941-3.24 6.474-2.973 8.92.343 3.136 1.85 6.311 4.032 8.493z"/><path d="m186.424 109.39h16.529v3h-16.529z" transform="matrix(.99638395 -.08496479 .08496479 .99638395 -8.717 16.941)"/></g><path d="m130.023 44.182 20.905-39.247c2.523-4.737 9.382-4.531 11.616.349l27.96 66.285z" fill="#fff"/><path d="m189.659 68.797-28.481-62.894c-.804-1.756-2.441-2.843-4.378-2.901-1.938-.06-3.637.928-4.547 2.638l-20.905 39.247-2.648-1.41 20.904-39.247c1.438-2.699 4.219-4.32 7.286-4.226 3.056.092 5.746 1.876 7.018 4.656l28.484 62.899z" fill="#231f20"/><path d="m442.022 96.114c0-38.022-33.043-66.625-71.066-66.625s-66.625 28.603-66.625 66.625c0 9.88 2.097 19.265 5.845 27.758l-31.393 3.685c-9.471 1.088-16.621 9.106-16.621 18.64 0 10.362 8.4 18.762 18.762 18.762h129.286c18.423 0 30.48-18.951 23.181-35.472 5.492-9.887 8.63-21.262 8.63-33.374z" fill="#fff"/><path d="m410.21 166.459h-129.286c-11.173 0-20.262-9.09-20.262-20.262 0-10.3 7.717-18.954 17.95-20.13l29.401-3.451c-3.439-8.433-5.182-17.339-5.182-26.502 0-24.867 13.342-48.137 34.818-60.728l1.517 2.588c-20.562 12.055-33.335 34.333-33.335 58.14 0 9.421 1.924 18.556 5.717 27.153l-1.198 2.095-31.393 3.685c-8.722 1.002-15.296 8.375-15.296 17.15 0 9.518 7.744 17.262 17.262 17.262h129.286c8.081 0 15.535-4.037 19.94-10.799 4.417-6.781 5.116-15.217 1.869-22.566l.061-1.335c5.522-9.942 8.441-21.231 8.441-32.645 0-20.133-8.905-39.051-24.43-51.903l1.913-2.311c16.217 13.424 25.517 33.184 25.517 54.214 0 11.677-2.925 23.228-8.465 33.457 3.318 8.115 2.443 17.304-2.393 24.727-4.961 7.615-13.355 12.162-22.454 12.162z" fill="#231f20"/><path d="m282.034 166.02c-2.689-2.689-4.473-6.439-4.893-10.289-.478-4.379.884-8.416 3.834-11.366l2.121 2.121c-2.941 2.941-3.24 6.474-2.973 8.92.342 3.136 1.85 6.311 4.032 8.493z" fill="#231f20"/><path d="m324.761 143.503c-.386-.264-9.532-6.604-15.918-18.941l2.664-1.379c6.022 11.634 14.859 17.783 14.948 17.844z" fill="#231f20"/><path d="m415.024 145.632-1.082-2.798c7.638-2.954 14.269-8.116 18.191-14.163l2.517 1.633c-4.321 6.661-11.291 12.105-19.626 15.328z" fill="#231f20"/><path d="m405.546 164.959h-36.77c-14.125 0-25.576-11.451-25.576-25.576 0-15.214 13.202-27.064 28.328-25.428l47.671 5.552c10.975 1.278 21.083-6.402 22.551-17.353.009-.064.017-.127.025-.191l.987 1.706c7.13 12.325 7.126 27.521-.01 39.843-7.688 13.274-21.866 21.447-37.206 21.447z" fill="#fff"/><path d="m405.546 166.459h-36.77c-14.93 0-27.076-12.146-27.076-27.076 0-7.677 3.277-15.021 8.99-20.149s13.369-7.595 21-6.77l47.683 5.553c10.175 1.185 19.545-6.021 20.891-16.062l.025-.186 2.786-.557.987 1.705c7.378 12.753 7.374 28.596-.01 41.346-7.929 13.691-22.683 22.196-38.504 22.196zm-36.766-51.152c-5.898 0-11.65 2.178-16.087 6.16-5.08 4.56-7.993 11.09-7.993 17.917 0 13.276 10.801 24.076 24.076 24.076h36.77c14.754 0 28.513-7.931 35.907-20.699 6.525-11.267 6.836-25.138.929-36.653-3.133 9.638-12.877 16.111-23.358 14.89l-47.671-5.552c-.858-.093-1.718-.139-2.574-.139z" fill="#231f20"/></svg>